<svg width="576" height="480" viewBox="0 0 576 480" fill="none" xmlns="http://www.w3.org/2000/svg">
<rect width="576" height="480" fill="#02111B"/>
<path d="M249.65 298V283.908H251.848V296.105H258.439V298H249.65ZM260.803 298V287.473H262.922V298H260.803ZM262.541 286.086H260.9L262.619 282.785H264.826L262.541 286.086ZM265.793 298V287.473H267.922V289.094H268.059C268.286 288.521 268.648 288.075 269.143 287.756C269.644 287.43 270.24 287.268 270.93 287.268C271.411 287.268 271.844 287.346 272.229 287.502C272.613 287.658 272.941 287.883 273.215 288.176C273.488 288.462 273.7 288.801 273.85 289.191H273.986C274.169 288.801 274.416 288.462 274.729 288.176C275.048 287.889 275.419 287.668 275.842 287.512C276.265 287.349 276.721 287.268 277.209 287.268C277.919 287.268 278.524 287.408 279.025 287.688C279.533 287.967 279.921 288.368 280.188 288.889C280.461 289.403 280.598 290.021 280.598 290.744V298H278.479V291.252C278.479 290.777 278.404 290.38 278.254 290.061C278.104 289.735 277.88 289.491 277.58 289.328C277.281 289.165 276.906 289.084 276.457 289.084C276.014 289.084 275.627 289.185 275.295 289.387C274.963 289.589 274.706 289.862 274.523 290.207C274.341 290.546 274.25 290.93 274.25 291.359V298H272.141V291.057C272.141 290.653 272.056 290.305 271.887 290.012C271.724 289.712 271.493 289.484 271.193 289.328C270.894 289.165 270.536 289.084 270.119 289.084C269.702 289.084 269.325 289.195 268.986 289.416C268.654 289.631 268.394 289.924 268.205 290.295C268.016 290.66 267.922 291.07 267.922 291.525V298H265.793ZM287.199 298.186C286.314 298.186 285.542 297.964 284.885 297.521C284.227 297.072 283.719 296.441 283.361 295.627C283.003 294.813 282.824 293.853 282.824 292.746V292.727C282.824 291.613 283.003 290.65 283.361 289.836C283.719 289.022 284.224 288.394 284.875 287.951C285.533 287.508 286.304 287.287 287.189 287.287C287.678 287.287 288.13 287.365 288.547 287.521C288.97 287.671 289.344 287.886 289.67 288.166C289.995 288.446 290.253 288.778 290.441 289.162H290.578V283.391H292.707V298H290.578V296.311H290.441C290.24 296.701 289.979 297.036 289.66 297.316C289.341 297.596 288.973 297.811 288.557 297.961C288.146 298.111 287.694 298.186 287.199 298.186ZM287.785 296.369C288.365 296.369 288.866 296.223 289.289 295.93C289.712 295.63 290.038 295.21 290.266 294.67C290.493 294.13 290.607 293.488 290.607 292.746V292.727C290.607 291.978 290.49 291.333 290.256 290.793C290.028 290.253 289.702 289.836 289.279 289.543C288.863 289.25 288.365 289.104 287.785 289.104C287.212 289.104 286.714 289.25 286.291 289.543C285.874 289.836 285.552 290.253 285.324 290.793C285.103 291.327 284.992 291.971 284.992 292.727V292.746C284.992 293.495 285.103 294.139 285.324 294.68C285.552 295.22 285.874 295.637 286.291 295.93C286.708 296.223 287.206 296.369 287.785 296.369ZM298.557 298.186C297.88 298.186 297.277 298.055 296.75 297.795C296.229 297.535 295.816 297.17 295.51 296.701C295.21 296.226 295.061 295.669 295.061 295.031V295.012C295.061 294.387 295.214 293.853 295.52 293.41C295.826 292.961 296.271 292.609 296.857 292.355C297.443 292.095 298.153 291.942 298.986 291.896L302.893 291.662V293.156L299.27 293.381C298.566 293.42 298.042 293.573 297.697 293.84C297.352 294.107 297.18 294.471 297.18 294.934V294.953C297.18 295.435 297.362 295.812 297.727 296.086C298.091 296.353 298.56 296.486 299.133 296.486C299.647 296.486 300.109 296.382 300.52 296.174C300.93 295.959 301.252 295.673 301.486 295.314C301.721 294.956 301.838 294.549 301.838 294.094V290.822C301.838 290.249 301.656 289.807 301.291 289.494C300.933 289.182 300.406 289.025 299.709 289.025C299.11 289.025 298.625 289.136 298.254 289.357C297.883 289.572 297.639 289.872 297.521 290.256L297.502 290.305H295.471L295.48 290.217C295.559 289.637 295.783 289.126 296.154 288.684C296.532 288.241 297.027 287.896 297.639 287.648C298.257 287.395 298.973 287.268 299.787 287.268C300.666 287.268 301.415 287.411 302.033 287.697C302.658 287.977 303.133 288.381 303.459 288.908C303.785 289.429 303.947 290.054 303.947 290.783V298H301.838V296.467H301.701C301.493 296.825 301.232 297.134 300.92 297.395C300.607 297.648 300.253 297.844 299.855 297.98C299.458 298.117 299.025 298.186 298.557 298.186ZM306.809 298V283.391H308.928V298H306.809ZM314.787 298.186C314.11 298.186 313.508 298.055 312.98 297.795C312.46 297.535 312.046 297.17 311.74 296.701C311.441 296.226 311.291 295.669 311.291 295.031V295.012C311.291 294.387 311.444 293.853 311.75 293.41C312.056 292.961 312.502 292.609 313.088 292.355C313.674 292.095 314.383 291.942 315.217 291.896L319.123 291.662V293.156L315.5 293.381C314.797 293.42 314.273 293.573 313.928 293.84C313.583 294.107 313.41 294.471 313.41 294.934V294.953C313.41 295.435 313.592 295.812 313.957 296.086C314.322 296.353 314.79 296.486 315.363 296.486C315.878 296.486 316.34 296.382 316.75 296.174C317.16 295.959 317.482 295.673 317.717 295.314C317.951 294.956 318.068 294.549 318.068 294.094V290.822C318.068 290.249 317.886 289.807 317.521 289.494C317.163 289.182 316.636 289.025 315.939 289.025C315.34 289.025 314.855 289.136 314.484 289.357C314.113 289.572 313.869 289.872 313.752 290.256L313.732 290.305H311.701L311.711 290.217C311.789 289.637 312.014 289.126 312.385 288.684C312.762 288.241 313.257 287.896 313.869 287.648C314.488 287.395 315.204 287.268 316.018 287.268C316.896 287.268 317.645 287.411 318.264 287.697C318.889 287.977 319.364 288.381 319.689 288.908C320.015 289.429 320.178 290.054 320.178 290.783V298H318.068V296.467H317.932C317.723 296.825 317.463 297.134 317.15 297.395C316.838 297.648 316.483 297.844 316.086 297.98C315.689 298.117 315.256 298.186 314.787 298.186Z" fill="#F5F5F5"/>
<path d="M254.593 242.615C260.58 242.336 264.366 240.617 265.848 237.497C266.48 236.172 266.546 234.757 266.342 233.383C267.72 234.021 269.484 234.616 271.305 234.616C271.66 234.616 272.012 234.596 272.367 234.549C274.212 234.303 275.775 233.368 276.882 231.859C277.389 231.162 277.161 230.233 276.371 229.785C275.58 229.346 274.521 229.545 274.015 230.236C273.428 231.039 272.743 231.461 271.862 231.584C269.657 231.892 266.795 230.213 265.87 229.545C265.571 229.322 265.212 229.237 264.845 229.229C264.204 228.103 263.485 227.157 262.898 226.574C256.116 219.902 255.83 214.415 255.822 214.333C255.801 213.509 255.074 212.963 254.081 212.872C253.144 212.889 252.395 213.57 252.41 214.4C252.418 214.666 252.642 220.989 260.353 228.572C261.786 229.993 263.953 233.723 262.703 236.351C261.543 238.792 257.558 239.484 254.419 239.63C253.481 239.677 252.757 240.379 252.806 241.2C252.854 242.007 253.6 242.627 254.504 242.627L254.593 242.615Z" fill="#F5F5F5"/>
<path d="M254.156 210.953C254.146 210.941 256.456 210.646 258.852 215.636C259.023 216 260.609 219.208 263.867 220.058C264.294 220.169 264.816 220.254 265.409 220.254C266.496 220.254 267.825 219.974 269.299 219.073C270.08 218.604 270.272 217.666 269.732 216.99C269.2 216.301 268.133 216.138 267.364 216.608C266.42 217.18 265.586 217.374 264.845 217.18C263.396 216.811 262.311 215.111 262.007 214.481C258.346 206.833 253.692 207.938 253.176 208.081C252.283 208.343 251.753 209.203 252.05 209.993C252.343 210.779 253.253 211.205 254.156 210.953Z" fill="#F5F5F5"/>
<path d="M270.306 202.33C269.951 203.1 270.364 203.975 271.23 204.29L271.882 204.403C272.548 204.403 273.187 204.056 273.459 203.477C278.367 193.054 274.107 178.473 273.929 177.858C273.691 177.054 272.769 176.556 271.851 176.79C270.937 176.996 270.391 177.818 270.637 178.619C270.67 178.763 274.778 192.831 270.306 202.33Z" fill="#F5F5F5"/>
<path d="M268.593 241.722C267.668 241.599 266.792 242.149 266.645 242.969C266.499 243.79 267.137 244.557 268.065 244.686C268.137 244.692 274.493 245.633 276.162 251.226C276.362 251.9 277.055 252.345 277.81 252.345L278.243 252.292C279.157 252.081 279.695 251.258 279.454 250.464C277.23 243.002 268.944 241.771 268.593 241.722Z" fill="#F5F5F5"/>
<path d="M271.514 254.941C267.19 255.815 260.417 248.566 257.146 243.814C256.654 243.104 255.611 242.882 254.802 243.31C253.997 243.74 253.737 244.655 254.222 245.37C255.156 246.732 263.158 258.007 270.821 258.007C271.302 258.007 271.773 257.96 272.248 257.872C273.173 257.69 273.746 256.89 273.548 256.08C273.347 255.269 272.438 254.769 271.514 254.941Z" fill="#F5F5F5"/>
<path d="M253.717 236.017C254.556 236.017 255.289 235.469 255.406 234.716C255.524 233.894 254.873 233.14 253.938 233.029C250.22 232.595 248.363 226.782 247.918 224.377C248.693 213.873 244.435 209.997 244.249 209.834C243.597 209.259 242.536 209.255 241.869 209.825C241.201 210.392 241.184 211.341 241.814 211.937C241.85 211.971 245.21 215.241 244.501 224.341L244.517 224.664C244.591 225.091 246.368 235.17 253.486 235.999L253.717 236.017Z" fill="#F5F5F5"/>
<path d="M261.241 209.246C260.858 210.005 261.247 210.89 262.107 211.227L262.799 211.356C263.447 211.356 264.076 211.025 264.356 210.465C266.133 206.944 264.269 200.767 264.048 200.071L263.875 199.707C259.415 193.083 265.442 186.414 265.695 186.134C266.041 185.763 266.122 185.295 266.014 184.86C266.594 185.451 267.222 186.045 267.955 186.639C268.286 186.905 268.699 187.039 269.116 187.039C269.579 187.039 270.032 186.876 270.367 186.558C271.008 185.948 270.966 184.998 270.279 184.436C267.18 181.92 265.714 179.544 266.021 177.569C266.402 175.112 269.419 173.715 269.498 173.678C270.334 173.306 270.675 172.406 270.256 171.668C269.833 170.929 268.808 170.623 267.965 170.995C267.776 171.079 263.305 173.087 262.651 177.125C262.296 179.297 263.13 181.55 265.086 183.855C264.397 183.572 263.564 183.695 263.055 184.239C262.736 184.58 255.366 192.676 260.819 201.055C261.309 202.715 262.284 207.176 261.241 209.246Z" fill="#F5F5F5"/>
<path d="M278.137 208.763C277.543 210.675 272.77 210.726 270.542 210.452C269.635 210.366 268.746 210.908 268.613 211.727C268.488 212.547 269.133 213.306 270.068 213.423C270.375 213.461 271.419 213.578 272.77 213.578C275.808 213.578 280.373 212.985 281.434 209.552C281.675 208.75 281.147 207.929 280.236 207.709C279.327 207.503 278.389 207.969 278.137 208.763Z" fill="#F5F5F5"/>
<path d="M331.332 212.45C333.891 198.607 327.42 193.981 325.163 192.817C326.037 183.756 320.235 179.888 318.348 178.887C318.18 177.225 317.646 175.665 316.697 174.225C313.052 168.725 304.894 166.954 303.736 166.724C301.052 164.266 298.19 163 295.175 163L295.016 163.003C289.836 163.078 285.881 166.838 284.01 169.015C282.136 166.838 278.181 163.078 273.001 163.003L272.841 163C269.83 163 266.965 164.266 264.284 166.724C263.123 166.954 254.969 168.725 251.317 174.225C250.369 175.664 249.826 177.225 249.67 178.887C247.782 179.888 241.979 183.756 242.853 192.814C240.607 193.979 234.124 198.603 236.683 212.447C236.052 213.483 232.073 220.389 234.195 227.011C234.69 228.537 235.513 229.9 236.561 231.139C236.363 232.871 236.116 241.055 247.544 248.572C251.904 251.445 256.013 255.634 259.753 261.01L260.121 261.387C260.355 261.563 265.205 265 271.011 265C272.103 265 273.232 264.877 274.368 264.581C278.401 263.562 281.615 260.68 283.991 256.043C286.364 260.68 289.583 263.562 293.614 264.581C294.754 264.877 295.88 265 296.97 265C302.778 264.997 307.625 261.563 307.867 261.387L308.234 261.01C311.973 255.637 316.076 251.45 320.443 248.572C331.85 241.065 331.614 232.885 331.417 231.142C332.48 229.903 333.3 228.537 333.786 227.011C335.944 220.399 331.972 213.497 331.332 212.45ZM282.029 252.334C279.979 257.619 277.103 260.769 273.459 261.697C268.596 262.952 263.578 259.902 262.507 259.201C258.589 253.617 254.243 249.231 249.6 246.169C242.726 241.645 240.698 237.001 240.131 234.124C240.679 234.467 241.202 234.819 241.82 235.126L242.652 235.311C243.249 235.311 243.829 235.036 244.142 234.543C244.607 233.822 244.313 232.908 243.491 232.501C235.114 228.384 236.618 220.887 238.304 216.706L239.096 216.899L239.478 216.861C240.4 216.676 240.97 215.868 240.758 215.059C237.543 202.816 241.235 197.881 243.457 196.111C243.881 197.827 244.497 199.672 245.405 201.703C245.671 202.295 246.317 202.651 246.991 202.651L247.623 202.547C248.5 202.241 248.931 201.368 248.583 200.604C243.593 189.519 247.411 184.398 249.927 182.405C250.079 183.126 250.233 183.847 250.513 184.597C250.742 185.23 251.414 185.634 252.138 185.634L252.659 185.562C253.56 185.308 254.045 184.46 253.752 183.672C252.632 180.624 252.805 177.956 254.269 175.734C255.78 173.435 258.441 171.92 260.745 170.975C260.598 171.569 260.863 172.202 261.484 172.547C262.27 172.988 263.33 172.791 263.835 172.089C266.759 168.039 269.796 165.989 272.847 165.989L272.935 165.992C277.43 166.051 281.078 170.466 282.022 171.72L282.029 252.334ZM318.427 246.17C313.778 249.234 309.436 253.62 305.519 259.208C304.45 259.911 299.443 262.947 294.584 261.704C290.942 260.778 288.053 257.632 285.997 252.343V171.725C287.351 169.879 290.995 166.063 295.078 166.006L295.167 166.003C298.223 166.003 301.248 168.058 304.184 172.103C304.691 172.805 305.754 173.005 306.536 172.561C307.157 172.217 307.417 171.583 307.276 170.989C309.585 171.937 312.234 173.449 313.747 175.745C315.213 177.966 315.384 180.637 314.264 183.684C313.974 184.473 314.464 185.318 315.356 185.574L315.88 185.645C316.604 185.645 317.269 185.241 317.502 184.608C317.782 183.858 317.935 183.134 318.092 182.415C320.601 184.41 324.426 189.527 319.439 200.614C319.092 201.382 319.522 202.254 320.398 202.558L321.025 202.663C321.704 202.663 322.344 202.306 322.611 201.715C323.53 199.686 324.136 197.842 324.562 196.127C326.782 197.897 330.473 202.83 327.263 215.07C327.052 215.878 327.622 216.681 328.543 216.871L328.925 216.909L329.688 216.73C330.675 219.2 331.614 222.805 330.527 226.197C329.681 228.852 327.662 230.976 324.537 232.508C323.718 232.913 323.42 233.827 323.883 234.553C324.197 235.045 324.782 235.321 325.376 235.321L326.209 235.133C326.826 234.828 327.345 234.474 327.889 234.134C327.332 237.007 325.294 241.652 318.427 246.17Z" fill="#F5F5F5"/>
<path d="M298.54 173.682C298.57 173.696 301.603 175.092 302.002 177.552C302.332 179.528 300.856 181.912 297.752 184.437C297.064 185.001 297.018 185.949 297.661 186.558C298.002 186.876 298.451 187.039 298.915 187.039C299.327 187.039 299.737 186.905 300.075 186.639C300.803 186.043 301.429 185.451 302.016 184.863C301.906 185.298 301.982 185.766 302.335 186.138C302.4 186.204 308.64 193.051 304.154 199.71L303.981 200.071C303.768 200.761 301.899 206.944 303.675 210.465C303.955 211.024 304.581 211.356 305.235 211.356L305.924 211.227C306.784 210.89 307.174 210.002 306.791 209.246C305.849 207.383 306.534 203.317 307.214 201.058C312.665 192.676 305.289 184.583 304.968 184.242C304.473 183.701 303.632 183.575 302.943 183.858C304.903 181.554 305.736 179.3 305.381 177.128C304.732 173.09 300.257 171.082 300.067 170.998C299.225 170.63 298.201 170.932 297.777 171.671C297.357 172.409 297.697 173.309 298.54 173.682Z" fill="#F5F5F5"/>
<path d="M313.614 239.621C310.475 239.474 306.488 238.791 305.33 236.342C304.085 233.711 306.255 229.981 307.683 228.566C315.396 220.987 315.612 214.655 315.619 214.391C315.64 213.566 314.893 212.888 313.96 212.867C312.998 212.825 312.241 213.501 312.208 214.321C312.208 214.379 311.935 219.879 305.137 226.568C304.543 227.142 303.824 228.094 303.187 229.216C302.828 229.228 302.464 229.316 302.158 229.539C301.236 230.206 298.39 231.877 296.174 231.579C295.289 231.455 294.601 231.021 294.021 230.227C293.512 229.531 292.449 229.328 291.666 229.777C290.873 230.225 290.637 231.154 291.153 231.851C292.258 233.367 293.821 234.297 295.667 234.544C296.02 234.593 296.375 234.607 296.724 234.607C298.549 234.607 300.309 234.016 301.688 233.374C301.481 234.748 301.554 236.157 302.186 237.485C303.664 240.608 307.449 242.325 313.439 242.606L313.524 242.609C314.434 242.609 315.179 241.988 315.23 241.182C315.277 240.371 314.554 239.665 313.614 239.621Z" fill="#F5F5F5"/>
<path d="M303.188 217.186C302.44 217.371 301.619 217.192 300.669 216.612C299.904 216.139 298.829 216.307 298.297 216.993C297.768 217.673 297.953 218.608 298.729 219.079C300.21 219.976 301.532 220.257 302.624 220.257C303.218 220.257 303.739 220.175 304.165 220.064C307.42 219.22 309.012 216.003 309.178 215.652C311.5 210.807 313.7 210.966 313.863 210.956C314.746 211.179 315.642 210.746 315.935 209.988C316.228 209.198 315.745 208.35 314.86 208.089C314.337 207.939 309.691 206.833 306.029 214.494C305.727 215.112 304.634 216.811 303.188 217.186Z" fill="#F5F5F5"/>
<path d="M296.144 204.406L296.798 204.293C297.666 203.978 298.08 203.102 297.72 202.333C293.255 192.853 297.361 178.766 297.393 178.625C297.635 177.822 297.087 177.002 296.174 176.796C295.257 176.567 294.334 177.065 294.101 177.864C293.915 178.479 289.668 193.06 294.572 203.483C294.843 204.059 295.467 204.406 296.144 204.406Z" fill="#F5F5F5"/>
<path d="M299.969 244.686C300.899 244.557 301.532 243.79 301.385 242.977C301.237 242.155 300.339 241.605 299.438 241.728C299.084 241.777 290.802 243.008 288.567 250.47C288.326 251.27 288.87 252.088 289.776 252.299L290.211 252.352C290.972 252.352 291.666 251.906 291.86 251.232C293.518 245.706 299.673 244.727 299.969 244.686Z" fill="#F5F5F5"/>
<path d="M313.221 243.31C312.427 242.885 311.368 243.107 310.878 243.814C307.606 248.566 300.816 255.827 296.511 254.941C295.584 254.769 294.677 255.269 294.472 256.079C294.264 256.892 294.844 257.69 295.763 257.874C296.243 257.959 296.71 258.009 297.196 258.009C304.861 258.009 312.86 246.734 313.79 245.372C314.287 244.657 314.031 243.737 313.221 243.31Z" fill="#F5F5F5"/>
<path d="M326.2 211.94C326.849 211.353 326.84 210.413 326.183 209.833C325.521 209.249 324.437 209.249 323.77 209.833C323.584 209.996 319.325 213.872 320.105 224.376C319.686 226.65 317.793 232.595 314.08 233.028C313.155 233.139 312.495 233.894 312.616 234.715C312.732 235.468 313.466 236.017 314.304 236.017L314.531 236.006C321.65 235.169 323.424 225.09 323.501 224.663L323.516 224.346C322.817 215.317 326.113 212.03 326.2 211.94Z" fill="#F5F5F5"/>
<path d="M297.965 213.426C298.894 213.308 299.546 212.55 299.418 211.731C299.276 210.907 298.393 210.347 297.49 210.455C296.045 210.638 290.55 210.878 289.887 208.766C289.641 207.966 288.707 207.505 287.794 207.714C286.881 207.932 286.348 208.757 286.595 209.555C287.657 212.988 292.219 213.581 295.261 213.581C296.6 213.578 297.657 213.461 297.965 213.426Z" fill="#F5F5F5"/>
</svg>
