{
	"asset":{
		"generator":"Khronos glTF Blender I/O v4.0.44",
		"version":"2.0"
	},
	"extensionsUsed":[
		"KHR_materials_specular",
		"KHR_materials_ior"
	],
	"scene":0,
	"scenes":[
		{
			"name":"Scene",
			"nodes":[
				0,
				1,
				2,
				3
			]
		}
	],
	"nodes":[
		{
			"mesh":0,
			"name":"Brain_Part_02",
			"rotation":[
				0.7117129564285278,
				0,
				0,
				0.7024704813957214
			],
			"scale":[
				3.586127519607544,
				3.5861282348632812,
				3.5861282348632812
			]
		},
		{
			"mesh":1,
			"name":"Brain_Part_04",
			"rotation":[
				0.7117129564285278,
				0,
				0,
				0.7024704813957214
			],
			"scale":[
				3.586127519607544,
				3.5861282348632812,
				3.5861282348632812
			]
		},
		{
			"mesh":2,
			"name":"Brain_Part_05",
			"rotation":[
				0.7117129564285278,
				0,
				0,
				0.7024704813957214
			],
			"scale":[
				3.586127519607544,
				3.5861282348632812,
				3.5861282348632812
			]
		},
		{
			"mesh":3,
			"name":"Brain_Part_06",
			"rotation":[
				0.7117129564285278,
				0,
				0,
				0.7024704813957214
			],
			"scale":[
				3.586127519607544,
				3.5861282348632812,
				3.5861282348632812
			]
		}
	],
	"materials":[
		{
			"doubleSided":true,
			"extensions":{
				"KHR_materials_specular":{
					"specularTexture":{
						"index":0
					}
				},
				"KHR_materials_ior":{
					"ior":1.4500000476837158
				}
			},
			"name":"BRAIN_TEXTURE_blinn2",
			"pbrMetallicRoughness":{
				"baseColorTexture":{
					"index":1
				},
				"metallicRoughnessTexture":{
					"index":2
				}
			}
		}
	],
	"meshes":[
		{
			"name":"Untitled.005",
			"primitives":[
				{
					"attributes":{
						"POSITION":0,
						"NORMAL":1,
						"TEXCOORD_0":2
					},
					"indices":3,
					"material":0
				}
			]
		},
		{
			"name":"Untitled.003",
			"primitives":[
				{
					"attributes":{
						"POSITION":4,
						"NORMAL":5,
						"TEXCOORD_0":6,
						"TEXCOORD_1":7
					},
					"indices":8,
					"material":0
				}
			]
		},
		{
			"name":"Untitled.004",
			"primitives":[
				{
					"attributes":{
						"POSITION":9,
						"NORMAL":10,
						"TEXCOORD_0":11
					},
					"indices":12,
					"material":0
				}
			]
		},
		{
			"name":"Untitled.002",
			"primitives":[
				{
					"attributes":{
						"POSITION":13,
						"NORMAL":14,
						"TEXCOORD_0":15,
						"TEXCOORD_1":16
					},
					"indices":17,
					"material":0
				}
			]
		}
	],
	"textures":[
		{
			"sampler":0,
			"source":0
		},
		{
			"sampler":0,
			"source":1
		},
		{
			"sampler":0,
			"source":2
		}
	],
	"images":[
		{
			"mimeType":"image/png",
			"name":"Brain",
			"uri":"Brain.png"
		},
		{
			"mimeType":"image/png",
			"name":"Brain",
			"uri":"Brain-1.png"
		},
		{
			"mimeType":"image/png",
			"name":"Brain",
			"uri":"Brain-2.png"
		}
	],
	"accessors":[
		{
			"bufferView":0,
			"componentType":5126,
			"count":6905,
			"max":[
				0.0422961562871933,
				0.018726035952568054,
				-0.0004219561815261841
			],
			"min":[
				-0.04378323256969452,
				-0.02785991132259369,
				-0.0379372239112854
			],
			"type":"VEC3"
		},
		{
			"bufferView":1,
			"componentType":5126,
			"count":6905,
			"type":"VEC3"
		},
		{
			"bufferView":2,
			"componentType":5126,
			"count":6905,
			"type":"VEC2"
		},
		{
			"bufferView":3,
			"componentType":5123,
			"count":40734,
			"type":"SCALAR"
		},
		{
			"bufferView":4,
			"componentType":5126,
			"count":19991,
			"max":[
				0.05414307862520218,
				0.08811590075492859,
				-0.01478201150894165
			],
			"min":[
				0.0005786353722214699,
				-0.043506354093551636,
				-0.09851151704788208
			],
			"type":"VEC3"
		},
		{
			"bufferView":5,
			"componentType":5126,
			"count":19991,
			"type":"VEC3"
		},
		{
			"bufferView":6,
			"componentType":5126,
			"count":19991,
			"type":"VEC2"
		},
		{
			"bufferView":7,
			"componentType":5126,
			"count":19991,
			"type":"VEC2"
		},
		{
			"bufferView":8,
			"componentType":5123,
			"count":114666,
			"type":"SCALAR"
		},
		{
			"bufferView":9,
			"componentType":5126,
			"count":1664,
			"max":[
				0.03361086547374725,
				0.053789347410202026,
				0.013877063989639282
			],
			"min":[
				-0.03366668522357941,
				-0.0016470253467559814,
				-0.06778797507286072
			],
			"type":"VEC3"
		},
		{
			"bufferView":10,
			"componentType":5126,
			"count":1664,
			"type":"VEC3"
		},
		{
			"bufferView":11,
			"componentType":5126,
			"count":1664,
			"type":"VEC2"
		},
		{
			"bufferView":12,
			"componentType":5123,
			"count":9714,
			"type":"SCALAR"
		},
		{
			"bufferView":13,
			"componentType":5126,
			"count":19991,
			"max":[
				0.0018603801727294922,
				0.08811590075492859,
				-0.01478201150894165
			],
			"min":[
				-0.0517040491104126,
				-0.043506354093551636,
				-0.09851151704788208
			],
			"type":"VEC3"
		},
		{
			"bufferView":14,
			"componentType":5126,
			"count":19991,
			"type":"VEC3"
		},
		{
			"bufferView":15,
			"componentType":5126,
			"count":19991,
			"type":"VEC2"
		},
		{
			"bufferView":16,
			"componentType":5126,
			"count":19991,
			"type":"VEC2"
		},
		{
			"bufferView":17,
			"componentType":5123,
			"count":114666,
			"type":"SCALAR"
		}
	],
	"bufferViews":[
		{
			"buffer":0,
			"byteLength":82860,
			"byteOffset":0,
			"target":34962
		},
		{
			"buffer":0,
			"byteLength":82860,
			"byteOffset":82860,
			"target":34962
		},
		{
			"buffer":0,
			"byteLength":55240,
			"byteOffset":165720,
			"target":34962
		},
		{
			"buffer":0,
			"byteLength":81468,
			"byteOffset":220960,
			"target":34963
		},
		{
			"buffer":0,
			"byteLength":239892,
			"byteOffset":302428,
			"target":34962
		},
		{
			"buffer":0,
			"byteLength":239892,
			"byteOffset":542320,
			"target":34962
		},
		{
			"buffer":0,
			"byteLength":159928,
			"byteOffset":782212,
			"target":34962
		},
		{
			"buffer":0,
			"byteLength":159928,
			"byteOffset":942140,
			"target":34962
		},
		{
			"buffer":0,
			"byteLength":229332,
			"byteOffset":1102068,
			"target":34963
		},
		{
			"buffer":0,
			"byteLength":19968,
			"byteOffset":1331400,
			"target":34962
		},
		{
			"buffer":0,
			"byteLength":19968,
			"byteOffset":1351368,
			"target":34962
		},
		{
			"buffer":0,
			"byteLength":13312,
			"byteOffset":1371336,
			"target":34962
		},
		{
			"buffer":0,
			"byteLength":19428,
			"byteOffset":1384648,
			"target":34963
		},
		{
			"buffer":0,
			"byteLength":239892,
			"byteOffset":1404076,
			"target":34962
		},
		{
			"buffer":0,
			"byteLength":239892,
			"byteOffset":1643968,
			"target":34962
		},
		{
			"buffer":0,
			"byteLength":159928,
			"byteOffset":1883860,
			"target":34962
		},
		{
			"buffer":0,
			"byteLength":159928,
			"byteOffset":2043788,
			"target":34962
		},
		{
			"buffer":0,
			"byteLength":229332,
			"byteOffset":2203716,
			"target":34963
		}
	],
	"samplers":[
		{
			"magFilter":9729,
			"minFilter":9987
		}
	],
	"buffers":[
		{
			"byteLength":2433048,
			"uri":"Brain.bin"
		}
	]
}
