<svg width="120" height="95" viewBox="0 0 120 95" fill="none" xmlns="http://www.w3.org/2000/svg">
<g clip-path="url(#clip0_6_958)">
<path d="M95 0H25C11.1929 0 0 10.6332 0 23.75V71.25C0 84.3668 11.1929 95 25 95H95C108.807 95 120 84.3668 120 71.25V23.75C120 10.6332 108.807 0 95 0Z" fill="#02111B"/>
<path d="M41.9372 64.9822C45.6152 64.8304 47.9404 63.8928 48.8504 62.1915C49.2389 61.4692 49.2789 60.6977 49.1541 59.9484C50.0002 60.2965 51.0837 60.6211 52.2024 60.6211C52.4204 60.6211 52.6366 60.61 52.8547 60.5843C53.9879 60.4503 54.9481 59.9406 55.6281 59.1179C55.9395 58.7375 55.7993 58.2312 55.3139 57.9866C54.8283 57.7475 54.1779 57.8558 53.8668 58.233C53.5062 58.6706 53.0858 58.9006 52.5445 58.9679C51.1902 59.1353 49.4322 58.2202 48.8641 57.8558C48.6802 57.7343 48.4599 57.6882 48.2347 57.6836C47.8408 57.0699 47.3991 56.5537 47.0387 56.236C42.8727 52.5981 42.697 49.6066 42.6924 49.5617C42.6793 49.1126 42.2331 48.8146 41.6231 48.7649C41.0474 48.7742 40.5874 49.1457 40.5968 49.5985C40.6014 49.7436 40.7393 53.1911 45.4752 57.3256C46.3554 58.1004 47.6864 60.1342 46.9185 61.5669C46.2064 62.8977 43.7585 63.2749 41.8308 63.3545C41.2543 63.3802 40.8099 63.7632 40.8395 64.2109C40.8695 64.6505 41.3277 64.9889 41.8831 64.9889L41.9372 64.9822Z" fill="white"/>
<path d="M41.6689 47.7187C41.6629 47.7126 43.0812 47.5517 44.5531 50.2722C44.6581 50.4705 45.6324 52.2197 47.6339 52.683C47.8956 52.7438 48.2162 52.7899 48.5808 52.7899C49.2481 52.7899 50.0645 52.6373 50.9702 52.1463C51.4499 51.8906 51.5674 51.3794 51.236 51.0106C50.9095 50.6348 50.2539 50.5461 49.7814 50.8024C49.2018 51.1142 48.6897 51.2196 48.2341 51.1142C47.3443 50.9127 46.6779 49.9862 46.4912 49.6424C44.2427 45.4723 41.3839 46.075 41.0668 46.153C40.5185 46.2959 40.1927 46.7647 40.3752 47.1954C40.5552 47.6237 41.1139 47.8561 41.6689 47.7187Z" fill="white"/>
<path d="M51.5888 43.0172C51.3709 43.437 51.6248 43.9143 52.1567 44.0859L52.5571 44.1475C52.9661 44.1475 53.3584 43.9583 53.5259 43.6428C56.5403 37.9598 53.924 30.0095 53.8146 29.674C53.6682 29.2359 53.1021 28.9641 52.5382 29.0916C51.9763 29.2044 51.6413 29.6523 51.7923 30.0893C51.8125 30.1674 54.3361 37.8381 51.5888 43.0172Z" fill="white"/>
<path d="M50.5361 64.4953C49.9684 64.4284 49.4298 64.7285 49.3401 65.1753C49.2498 65.6226 49.6421 66.0414 50.2123 66.1117C50.2561 66.1149 54.1601 66.6279 55.1853 69.6776C55.3084 70.0447 55.7336 70.2877 56.1973 70.2877L56.4632 70.2588C57.0251 70.1438 57.3557 69.695 57.2076 69.2621C55.8413 65.1932 50.7519 64.5224 50.5361 64.4953Z" fill="white"/>
<path d="M52.3307 71.703C49.6749 72.1792 45.5149 68.2272 43.5057 65.6359C43.2035 65.249 42.5628 65.1278 42.0657 65.3612C41.5714 65.5959 41.4116 66.0945 41.7097 66.4842C42.2835 67.227 47.1985 73.3744 51.9055 73.3744C52.2007 73.3744 52.4897 73.3491 52.7816 73.3012C53.3501 73.2019 53.7016 72.7656 53.5801 72.3237C53.4566 71.8819 52.8987 71.609 52.3307 71.703Z" fill="white"/>
<path d="M41.3991 61.3848C41.9145 61.3848 42.3647 61.0862 42.4362 60.6753C42.5087 60.2272 42.1089 59.816 41.5347 59.7554C39.251 59.5187 38.1106 56.3494 37.8372 55.0379C38.3131 49.3109 35.6979 47.1976 35.5835 47.1087C35.1829 46.7952 34.5312 46.7932 34.1218 47.1038C33.7114 47.4133 33.701 47.9305 34.0881 48.2554C34.1097 48.2739 36.1739 50.0569 35.7383 55.0187L35.7481 55.1944C35.7937 55.4278 36.885 60.9229 41.257 61.3751L41.3991 61.3848Z" fill="white"/>
<path d="M46.0202 46.7881C45.7852 47.2019 46.0241 47.6845 46.5522 47.8683L46.9777 47.9384C47.3756 47.9384 47.7616 47.7581 47.9339 47.4527C49.0254 45.5331 47.8806 42.165 47.7447 41.7854L47.6381 41.5872C44.8987 37.9753 48.6006 34.3393 48.7564 34.1867C48.9685 33.9841 49.0187 33.7292 48.952 33.4919C49.3085 33.8139 49.6941 34.1379 50.1441 34.4616C50.3475 34.6067 50.6014 34.6798 50.8572 34.6798C51.142 34.6798 51.4202 34.5911 51.626 34.4175C52.0197 34.0854 51.9937 33.5669 51.5716 33.2609C49.6683 31.8887 48.7681 30.5932 48.9566 29.5165C49.1904 28.177 51.0435 27.415 51.0922 27.3948C51.6058 27.192 51.8147 26.7015 51.5579 26.299C51.2975 25.8964 50.6685 25.7294 50.1504 25.9322C50.0341 25.9778 47.2881 27.0728 46.8864 29.2744C46.6683 30.4588 47.1808 31.6873 48.382 32.9438C47.9587 32.7896 47.447 32.8569 47.1347 33.1532C46.9387 33.3395 42.4116 37.7534 45.761 42.3223C46.062 43.2274 46.6608 45.6596 46.0202 46.7881Z" fill="white"/>
<path d="M56.3983 46.5245C56.034 47.5671 53.1021 47.5952 51.7335 47.4456C51.1763 47.3987 50.6306 47.6942 50.5485 48.1411C50.4719 48.5879 50.8681 49.0018 51.4421 49.0653C51.6306 49.0861 52.2725 49.1502 53.1021 49.1502C54.9681 49.1502 57.7717 48.8264 58.4238 46.9549C58.5719 46.5177 58.2471 46.0701 57.6879 45.9503C57.1296 45.8379 56.5535 46.0916 56.3983 46.5245Z" fill="white"/>
<path d="M89.0725 48.5351C90.6442 40.9875 86.6694 38.4651 85.2833 37.8304C85.8196 32.8902 82.2562 30.7812 81.0969 30.2349C80.994 29.3291 80.666 28.4782 80.0829 27.6933C77.844 24.6947 72.8335 23.7286 72.1223 23.6033C70.4735 22.2631 68.7156 21.5729 66.8635 21.5729L66.7658 21.5743C63.5844 21.6153 61.1552 23.6655 60.0058 24.8526C58.855 23.6655 56.4256 21.6153 53.2442 21.5743L53.1454 21.5729C51.296 21.5729 49.5365 22.2631 47.8898 23.6033C47.1769 23.7286 42.1683 24.6945 39.9252 27.6933C39.3429 28.478 39.0094 29.3291 38.9131 30.2349C37.7537 30.7812 34.1894 32.8898 34.726 37.8286C33.3467 38.4637 29.3648 40.985 30.9369 48.5337C30.549 49.0984 28.105 52.8637 29.4085 56.4743C29.7123 57.3066 30.2179 58.0494 30.8617 58.7252C30.74 59.6697 30.5881 64.1315 37.6079 68.2304C40.2858 69.7967 42.8094 72.0805 45.1067 75.012L45.3325 75.2178C45.4765 75.3134 48.4552 77.1875 52.0219 77.1875C52.6925 77.1875 53.386 77.1206 54.0835 76.9589C56.561 76.4034 58.5348 74.8317 59.9946 72.3039C61.4517 74.8317 63.4287 76.4034 65.9048 76.9589C66.605 77.1206 67.2969 77.1875 67.966 77.1875C71.5335 77.1861 74.511 75.3134 74.6592 75.2178L74.8848 75.012C77.1812 72.0822 79.7017 69.7993 82.384 68.2304C89.3904 64.1373 89.2456 59.6772 89.1246 58.7266C89.7775 58.0511 90.281 57.3066 90.5798 56.4743C91.905 52.8691 89.4652 49.1063 89.0725 48.5351ZM58.7894 70.2812C57.5298 73.1631 55.7635 74.8806 53.5254 75.3869C50.5385 76.0709 47.4562 74.4076 46.7983 74.0258C44.3919 70.9808 41.7221 68.5898 38.8702 66.9202C34.6485 64.4531 33.4023 61.9214 33.0542 60.3525C33.3908 60.5397 33.7121 60.7315 34.0921 60.899L34.6025 60.9997C34.9696 60.9997 35.3256 60.8501 35.5179 60.5811C35.8035 60.1878 35.6233 59.6895 35.1179 59.4676C29.9729 57.2232 30.8969 53.1351 31.9325 50.8555L32.4187 50.9606L32.6535 50.9402C33.2194 50.8392 33.5696 50.3987 33.4394 49.9575C31.465 43.2826 33.7323 40.5913 35.0975 39.6265C35.3577 40.5618 35.7358 41.5682 36.294 42.6756C36.4573 42.9982 36.8538 43.1923 37.2683 43.1923L37.656 43.1357C38.195 42.9687 38.4596 42.4925 38.2456 42.0759C35.1808 36.0323 37.526 33.2399 39.0715 32.1535C39.165 32.5466 39.2592 32.9395 39.4312 33.3486C39.5719 33.6935 39.9848 33.914 40.4292 33.914L40.7494 33.8748C41.3029 33.7359 41.6006 33.2741 41.421 32.8443C40.7329 31.182 40.839 29.7275 41.7385 28.516C42.6665 27.2626 44.3006 26.4367 45.7158 25.9213C45.6258 26.2449 45.7885 26.5899 46.17 26.7785C46.6525 27.0188 47.304 26.9111 47.6142 26.5287C49.4102 24.3202 51.2754 23.2026 53.1492 23.2026L53.2035 23.2039C55.9646 23.2368 58.2048 25.6435 58.7846 26.3273L58.7894 70.2812ZM81.1454 66.9204C78.2902 68.5914 75.6233 70.9824 73.2169 74.0291C72.561 74.4125 69.485 76.0681 66.501 75.3906C64.264 74.8855 62.4894 73.17 61.2267 70.2861V26.3302C62.0581 25.3238 64.2965 23.2431 66.804 23.2119L66.8585 23.2101C68.7358 23.2101 70.594 24.3309 72.3975 26.5363C72.7087 26.919 73.3617 27.0283 73.8419 26.7862C74.2231 26.5984 74.3831 26.2525 74.2965 25.9291C75.7148 26.4458 77.3421 27.2699 78.271 28.5218C79.1719 29.7328 79.2765 31.1895 78.5887 32.8504C78.4102 33.2807 78.7115 33.7418 79.2596 33.881L79.581 33.9201C80.0256 33.9201 80.4344 33.6995 80.5777 33.3543C80.7494 32.9454 80.8437 32.551 80.9398 32.1585C82.481 33.2466 84.8304 36.0367 81.7671 42.0814C81.5544 42.5 81.8179 42.976 82.3563 43.1415L82.7415 43.1991C83.1585 43.1991 83.5517 43.0043 83.7158 42.6819C84.2798 41.5756 84.6523 40.5699 84.9142 39.6352C86.2775 40.6 88.5448 43.2897 86.5729 49.9633C86.4431 50.4042 86.7931 50.8418 87.3592 50.9457L87.5935 50.9665L88.0627 50.8687C88.669 52.2154 89.2452 54.1809 88.5781 56.0306C88.0581 57.478 86.8179 58.6362 84.8983 59.4714C84.3954 59.6921 84.2125 60.1908 84.4971 60.5866C84.6898 60.855 85.0488 61.0052 85.4137 61.0052L85.9254 60.9029C86.3044 60.7367 86.6233 60.5437 86.9575 60.3582C86.6156 61.9246 85.3633 64.4569 81.1454 66.9204Z" fill="white"/>
<path d="M68.9304 27.397C68.9491 27.4047 70.8123 28.1659 71.0573 29.507C71.26 30.5847 70.3533 31.8844 68.4464 33.2613C68.0241 33.5688 67.9958 34.0856 68.3908 34.4179C68.6006 34.5913 68.8762 34.6801 69.1612 34.6801C69.4146 34.6801 69.6662 34.6071 69.8733 34.462C70.3208 34.1371 70.7056 33.8139 71.0658 33.4936C70.9981 33.7307 71.0452 33.9859 71.2619 34.1885C71.3014 34.2245 75.1348 37.9576 72.3793 41.589L72.2727 41.7854C72.1418 42.1618 70.9939 45.5331 72.0846 47.4527C72.2566 47.7577 72.6412 47.9384 73.0429 47.9384L73.4662 47.8683C73.9944 47.6845 74.2341 47.2002 73.9985 46.7881C73.4202 45.7722 73.841 43.5555 74.2585 42.3237C77.6066 37.7534 73.0762 33.3408 72.8791 33.1546C72.575 32.8601 72.0585 32.7912 71.6354 32.9454C72.8389 31.689 73.3506 30.4604 73.1329 29.2758C72.7343 27.0744 69.9852 25.9795 69.8685 25.934C69.3512 25.7329 68.7225 25.8978 68.4623 26.3008C68.2041 26.7033 68.4129 27.1938 68.9304 27.397Z" fill="white"/>
<path d="M78.19 63.35C76.2619 63.27 73.813 62.8973 73.1019 61.562C72.3369 60.1275 73.6696 58.0937 74.5467 57.3224C79.2844 53.1897 79.4171 49.7374 79.4217 49.5936C79.434 49.1435 78.9755 48.774 78.4021 48.7625C77.8115 48.7395 77.3463 49.1079 77.3261 49.5552C77.3261 49.587 77.1588 52.5857 72.983 56.2329C72.6182 56.5456 72.1765 57.0649 71.7857 57.6769C71.5646 57.6832 71.3413 57.7311 71.1536 57.8526C70.5873 58.2166 68.8392 59.1272 67.4778 58.9649C66.9342 58.8974 66.5115 58.6609 66.1555 58.2281C65.8425 57.8485 65.1898 57.7378 64.7088 57.9823C64.2219 58.2265 64.0771 58.7332 64.3936 59.1135C65.0728 59.9397 66.0328 60.4471 67.1665 60.5813C67.3834 60.6086 67.6011 60.6161 67.8159 60.6161C68.9367 60.6161 70.0177 60.2939 70.8648 59.9438C70.7378 60.6929 70.7825 61.461 71.1705 62.185C72.0786 63.8883 74.4034 64.8242 78.0827 64.9774L78.1346 64.979C78.6934 64.979 79.1513 64.6406 79.1823 64.201C79.2111 63.7589 78.7671 63.3735 78.19 63.35Z" fill="white"/>
<path d="M71.7855 51.1175C71.3257 51.2185 70.8216 51.1207 70.2382 50.8044C69.768 50.5463 69.1082 50.6384 68.781 51.0122C68.4564 51.3831 68.5701 51.8926 69.047 52.1497C69.9566 52.6387 70.7685 52.7917 71.4391 52.7917C71.8039 52.7917 72.1237 52.747 72.3855 52.6866C74.3849 52.2264 75.3626 50.4725 75.4643 50.2807C76.891 47.6391 78.2422 47.7262 78.3422 47.7207C78.8845 47.842 79.4349 47.6063 79.6149 47.1924C79.7947 46.762 79.4982 46.2994 78.9543 46.1573C78.6335 46.0752 75.7797 45.4727 73.5303 49.6496C73.3447 49.9864 72.6739 50.9131 71.7855 51.1175Z" fill="white"/>
<path d="M67.4589 44.1493L67.8606 44.0877C68.3939 43.9161 68.6483 43.4384 68.4269 43.019C65.6846 37.85 68.2066 30.1692 68.2264 30.0924C68.3746 29.6543 68.0379 29.2076 67.4773 29.0949C66.9143 28.9703 66.3473 29.2418 66.2041 29.6772C66.0896 30.0127 63.4812 37.9626 66.4935 43.646C66.6596 43.9599 67.0433 44.1493 67.4589 44.1493Z" fill="white"/>
<path d="M69.809 66.1117C70.3797 66.0414 70.769 65.6226 70.6786 65.1795C70.5878 64.7314 70.0361 64.4316 69.4826 64.4985C69.2655 64.5256 64.1784 65.1965 62.8055 69.2653C62.6578 69.7015 62.9913 70.1472 63.5482 70.2622L63.8149 70.2911C64.2828 70.2911 64.7088 70.0483 64.8282 69.6807C65.8465 66.6678 69.627 66.1339 69.809 66.1117Z" fill="white"/>
<path d="M77.9482 65.3612C77.4609 65.1292 76.8101 65.2508 76.509 65.6359C74.4994 68.2272 70.3286 72.1859 67.6844 71.703C67.1155 71.609 66.5582 71.8818 66.4321 72.3235C66.3046 72.7668 66.6607 73.2017 67.2255 73.3024C67.5201 73.3487 67.8067 73.3758 68.1055 73.3758C72.8136 73.3758 77.7267 67.2283 78.2976 66.4854C78.6032 66.0957 78.4457 65.5941 77.9482 65.3612Z" fill="white"/>
<path d="M85.9197 48.257C86.3184 47.9366 86.3128 47.4246 85.9097 47.1085C85.5028 46.7897 84.8374 46.7897 84.4274 47.1085C84.313 47.1972 81.6974 49.3105 82.1761 55.0377C81.9188 56.2772 80.7559 59.5187 78.4755 59.7552C77.9074 59.8156 77.502 60.227 77.5761 60.6751C77.6476 61.0856 78.0982 61.3844 78.6128 61.3844L78.7528 61.3787C83.1255 60.9227 84.2149 55.4271 84.2622 55.1938L84.2713 55.0212C83.842 50.0982 85.8663 48.3059 85.9197 48.257Z" fill="white"/>
<path d="M68.5773 49.0671C69.148 49.0032 69.5486 48.5895 69.4696 48.1428C69.383 47.6938 68.8407 47.3888 68.2859 47.4472C67.3984 47.5473 64.0232 47.6779 63.6159 46.5262C63.4644 46.09 62.8911 45.8391 62.3305 45.9527C61.7696 46.0718 61.4421 46.5213 61.5936 46.9567C62.2463 48.8282 65.048 49.1518 66.9167 49.1518C67.739 49.1502 68.3884 49.0863 68.5773 49.0671Z" fill="white"/>
</g>
<defs>
<clipPath id="clip0_6_958">
<rect width="120" height="95" fill="white"/>
</clipPath>
</defs>
</svg>
